{"title":"Wolf Creek 2 (2013) HDRip Xvid Ac3-XYZ [P2PDL","uid":9997813,"size":1322671619,"categoryP":"video","categoryS":"movies","magnet":"?xt=urn:btih:e0488d05edc975fcadceb425a55c17ed6d30faaa&amp;dn=Wolf+Creek+2+%282013%29+HDRip+Xvid+Ac3-XYZ+%5BP2PDL&amp;tr=udp%3A%2F%2Ftracker.openbittorrent.com%3A80&amp;tr=udp%3A%2F%2Fopen.demonii.com%3A1337&amp;tr=udp%3A%2F%2Ftracker.coppersurfer.tk%3A6969&amp;tr=udp%3A%2F%2Fexodus.desync.com%3A6969","seeders":25,"leechers":1,"uploader":"TeX","files":2,"time":1397940737,"description":" &lt;a href=&quot;http://i.imgur.com/f8wVeYl.jpg&quot; rel=&quot;nofollow&quot; target=&quot;_NEW&quot;&gt;http://i.imgur.com/f8wVeYl.jpg&lt;/a&gt;\n &lt;a href=&quot;\nhttp://www.imdb.com/title/tt2004432/&quot; rel=&quot;nofollow&quot; target=&quot;_NEW&quot;&gt;\nhttp://www.imdb.com/title/tt2004432/&lt;/a&gt;\n\nThe outback once more becomes a place of horror as another unwitting tourist becomes the prey for crazed, serial-killing pig-shooter Mick Taylor.\n\nFormat                                   : AVI\nFormat/Info                              : Audio Video Interleave\nFormat profile                           : OpenDML\nFile size                                : 1.23 GiB\nDuration                                 : 1h 45mn\nOverall bit rate                         : 1 668 Kbps\nWriting application                      : Lavf55.7.100\n\nVideo\nID                                       : 0\nFormat                                   : MPEG-4 Visual\nFormat profile                           : Advanced Simple@L1\nFormat settings, BVOP                    : No\nFormat settings, QPel                    : No\nFormat settings, GMC                     : No warppoints\nFormat settings, Matrix                  : Default (H.263)\nCodec ID                                 : XVID\nCodec ID/Hint                            : XviD\nDuration                                 : 1h 45mn\nBit rate                                 : 1 398 Kbps\nWidth                                    : 640 pixels\nHeight                                   : 272 pixels\nDisplay aspect ratio                     : 2.35:1\nFrame rate                               : 29.970 fps\nColor space                              : YUV\nChroma subsampling                       : 4:2:0\nBit depth                                : 8 bits\nScan type                                : Progressive\nCompression mode                         : Lossy\nBits/(Pixel*Frame)                       : 0.268\nStream size                              : 1.03 GiB (84%)\nWriting library                          : Lavc55.12.100\n\nAudio\nID                                       : 1\nFormat                                   : AC-3\nFormat/Info                              : Audio Coding 3\nMode extension                           : CM (complete main)\nFormat settings, Endianness              : Big\nCodec ID                                 : 2000\nDuration                                 : 1h 45mn\nBit rate mode                            : Constant\nBit rate                                 : 256 Kbps\nChannel(s)                               : 2 channels\nChannel positions                        : Front: L R\nSampling rate                            : 44.1 KHz\nBit depth                                : 16 bits\nCompression mode                         : Lossy\nStream size                              : 194 MiB (15%)\nAlignment                                : Aligned on interleaves\nInterleave, duration                     : 35 ms (1.04 video frame)\nInterleave, preload duration             : 34 ms\n &lt;a href=&quot;\nhttp://i.imgur.com/c0uUN8R.jpg&quot; rel=&quot;nofollow&quot; target=&quot;_NEW&quot;&gt;\nhttp://i.imgur.com/c0uUN8R.jpg&lt;/a&gt; &lt;a href=&quot;\nhttp://i.imgur.com/3iqKuk0.jpg&quot; rel=&quot;nofollow&quot; target=&quot;_NEW&quot;&gt;\nhttp://i.imgur.com/3iqKuk0.jpg&lt;/a&gt; &lt;a href=&quot;\nhttp://i.imgur.com/SQHjjUP.jpg&quot; rel=&quot;nofollow&quot; target=&quot;_NEW&quot;&gt;\nhttp://i.imgur.com/SQHjjUP.jpg&lt;/a&gt;\n\n\n","torrent":{"xt":"urn:btih:e0488d05edc975fcadceb425a55c17ed6d30faaa","amp;dn":"Wolf+Creek+2+%282013%29+HDRip+Xvid+Ac3-XYZ+%5BP2PDL","amp;tr":["udp%3A%2F%2Ftracker.openbittorrent.com%3A80","udp%3A%2F%2Fopen.demonii.com%3A1337","udp%3A%2F%2Ftracker.coppersurfer.tk%3A6969","udp%3A%2F%2Fexodus.desync.com%3A6969"],"infoHash":"e0488d05edc975fcadceb425a55c17ed6d30faaa","infoHashBuffer":{"type":"Buffer","data":[224,72,141,5,237,201,117,252,173,206,180,37,165,92,23,237,109,48,250,170]},"announce":[],"urlList":[]}}